<svg width="331" height="57" viewBox="0 0 331 57" fill="none" xmlns="http://www.w3.org/2000/svg">
<mask id="mask0_2218_432" style="mask-type:luminance" maskUnits="userSpaceOnUse" x="0" y="0" width="331" height="57">
<path d="M331 0.960052H0V56.8553H331V0.960052Z" fill="white"/>
</mask>
<g mask="url(#mask0_2218_432)">
<path d="M5.28192 6.81999V30.7107H13.6449C26.4096 30.7107 29.4907 30.2599 29.4907 18.9907C29.4907 7.72153 26.4096 6.81999 13.6449 6.81999H5.28192ZM35.2128 18.9907C35.2128 34.3168 29.9309 35.6691 14.0851 35.6691H5.28192V55.0522C5.28192 55.9537 5.28192 55.9537 4.4016 55.9537H0.880319C-3.27944e-07 55.9537 0 55.9537 0 55.0522V3.21385C0 2.31231 -3.27944e-07 2.31231 0.880319 2.31231C5.28192 1.86154 11.004 1.86154 14.0851 1.86154C29.9309 1.86154 34.7726 4.11538 35.2128 18.9907Z" fill="white"/>
<path d="M49.2979 6.81999V30.7107H57.661C70.4256 30.7107 73.5067 30.2599 73.5067 18.9907C73.5067 7.72153 69.9854 6.81999 57.661 6.81999H49.2979ZM79.2288 18.9907C79.2288 30.7107 76.1477 34.3168 67.3445 35.2184L79.2288 54.6014C79.669 55.0522 79.2288 55.9537 78.3485 55.9537H75.2674C73.9469 55.9537 73.5067 55.5029 73.0666 54.6014L61.1823 35.6691H48.8578V55.0522C48.8578 55.9537 48.4176 55.9537 47.9775 55.9537H44.4562C43.5759 55.9537 43.5759 55.9537 43.5759 55.0522V3.21385C43.5759 2.31231 44.016 2.31231 44.4562 2.31231C48.8578 1.86154 54.5799 1.86154 57.661 1.86154C73.5067 1.86154 78.7886 4.11538 79.2288 18.9907Z" fill="white"/>
<path d="M92.4336 29.3584C92.4336 46.4876 94.6344 51.446 107.839 51.446C121.044 51.446 123.245 46.4876 123.245 29.3584C123.245 12.2292 121.044 7.27073 107.839 7.27073C94.6344 7.27073 92.4336 11.7784 92.4336 29.3584ZM128.087 29.3584C128.087 50.0937 124.125 56.4045 107.399 56.4045C90.6729 56.4045 86.7115 50.5445 86.7115 29.3584C86.7115 8.17227 90.6729 2.31229 107.399 2.31229C124.125 2.31229 128.087 8.17227 128.087 29.3584Z" fill="white"/>
<path d="M187.508 2.31229C187.948 2.31229 188.388 2.76305 188.388 3.21382L192.79 54.6014C192.79 55.0522 192.35 55.5029 191.91 55.5029H188.388C187.948 55.5029 187.508 55.0522 187.508 54.6014L183.987 11.3277L167.701 53.2491C167.701 53.6999 167.261 54.1506 166.38 54.1506H162.859C162.419 54.1506 161.979 53.6999 161.538 53.2491L145.693 11.3277L142.171 54.6014C142.171 55.0522 141.731 55.5029 141.291 55.5029H137.77C136.89 55.9537 136.89 55.5029 136.89 55.0522L141.291 3.66459C141.291 2.76305 141.731 2.76305 142.171 2.76305H146.133C147.453 2.76305 147.894 3.66459 148.774 5.46766L165.06 48.2906L181.346 5.46766C182.226 3.66459 182.226 2.76305 183.987 2.76305L187.508 2.31229Z" fill="white"/>
<path d="M206.435 29.3584C206.435 46.4876 208.636 51.446 221.84 51.446C235.045 51.446 237.246 46.4876 237.246 29.3584C237.246 12.2292 235.045 7.27073 221.84 7.27073C208.636 7.27073 206.435 11.7784 206.435 29.3584ZM242.528 29.3584C242.528 50.0937 238.567 56.4045 221.84 56.4045C205.114 56.4045 201.153 50.5445 201.153 29.3584C201.153 8.17227 205.114 2.31229 221.84 2.31229C238.567 2.31229 242.528 8.17227 242.528 29.3584Z" fill="white"/>
<path d="M293.146 2.31229C293.586 2.31229 294.027 2.76305 294.027 3.21382V54.6014C294.027 55.0522 293.586 55.5029 293.146 55.5029H289.625C288.745 55.5029 288.305 55.5029 287.864 54.6014L258.374 9.52457V55.0522C258.374 55.5029 257.934 55.9537 257.493 55.9537H253.972C253.532 55.9537 253.092 55.5029 253.092 55.0522V3.21382C253.092 2.76305 253.532 2.31229 253.972 2.31229H257.493C259.254 2.31229 259.694 2.76305 260.574 4.11536L288.305 46.9383V3.66459C288.305 3.21382 288.745 2.76305 289.185 2.76305H293.146V2.31229Z" fill="white"/>
<path d="M325.718 42.8814H324.838C323.517 42.8814 321.757 43.3321 320.876 45.586L317.355 53.6998C316.475 55.5029 315.594 56.4044 313.834 56.8552H328.799V47.8398C328.799 44.6845 328.359 42.8814 325.718 42.8814Z" fill="white"/>
<path d="M330.56 21.6954L309.432 15.3846C307.672 14.9339 306.791 14.4831 306.351 14.0323V23.0477L331 33.8661L330.56 21.6954Z" fill="white"/>
<path d="M306.351 25.3015V41.5292H307.672C308.112 41.5292 308.112 41.5292 308.112 41.9799V49.643C308.112 53.2491 308.992 54.6014 311.633 54.6014H312.073C313.834 54.6014 315.154 54.1507 316.035 51.8968L319.116 43.783C320.436 40.6276 322.637 40.1769 324.838 40.1769H325.718C329.239 40.1769 330.56 41.9799 331 44.2338V36.12L306.351 25.3015Z" fill="white"/>
<path d="M322.637 16.7369L330.56 18.9908C330.56 18.9908 330.56 18.9908 331 18.9908V3.21387C331 3.21387 331 3.21387 330.56 3.21387L322.637 5.46771C322.637 5.91848 322.637 16.7369 322.637 16.7369Z" fill="white"/>
<path d="M320.436 15.8355V6.36932L309.872 9.07393C308.112 9.5247 307.672 9.5247 307.672 10.877C307.672 11.7785 308.112 12.2293 309.872 12.6801L320.436 15.8355Z" fill="white"/>
<path d="M306.351 53.6999V56.8553H309.432C307.672 56.4045 306.791 55.503 306.351 53.6999Z" fill="white"/>
<path d="M309.432 6.82001L330.56 0.960022H306.351V8.17231C306.791 7.72154 307.672 7.27078 309.432 6.82001Z" fill="white"/>
</g>
</svg>
